# xmcd
#
# Track frame offsets:
#	150
#	11035
#	21830
#	36378
#	46165
#	58540
#	72580
#	89045
#	99245
#	113938
#	125186
#	136006
#	149192
#	162602
#	176540
#	185898
#	196013
#	209091
#	219944
#	236457
#	243740
#	249810
#	259123
#	267556
#	271601
#
# Disc length: 3767 seconds
#
# Revision: 1
# Processed by: cddbd v1.4PL0 Copyright (c) Steve Scherf et al.
# Submitted via: EasyCDDAExtractor 5.1.0
#
DISCID=830eb519
DTITLE=Elvis Presley - Platinum - A Life In Music Disc 2
DYEAR=1997
DGENRE=Vocal
TTITLE0=Stuck On You
TTITLE1=Fame And Fortune
TTITLE2=Its Now Or Never
TTITLE3=It Feels So Right (Alternate Take)
TTITLE4=A Mess Of Blues (Alternate Take)
TTITLE5=Are You Lonesome Tonight
TTITLE6=Reconsider Baby
TTITLE7=Tonight Is So Right For Love (Alternate Take)
TTITLE8=His Hand In Mine (Alternate Take)
TTITLE9=Milky White Way (Alternate Take)
TTITLE10=I'm Comin' Home (Alternate Take)
TTITLE11=I Feel So Bad (Alternate Take)
TTITLE12=Can't Help Falling In Love
TTITLE13=Something Blue (Alternate Take)
TTITLE14=Return To Sender
TTITLE15=Bossa Nova Baby (Alternate Take)
TTITLE16=How Great Thou Art (Alternate Take)
TTITLE17=Guitar Man (Alternate Take)
TTITLE18=You'll Never Walk Alone (Alternate Take)
TTITLE19=Oh How I Love Jesus
TTITLE20=Tennessee Waltz
TTITLE21=Blowin' In The Wind
TTITLE22=I Can't Help It (If I'm Still In Love With You)
TTITLE23=I'm Beginning To Forget You
TTITLE24=After Loving You
EXTD=ID3G:  17\n
EXTT0=
EXTT1=
EXTT2=
EXTT3=
EXTT4=
EXTT5=
EXTT6=
EXTT7=
EXTT8=
EXTT9=
EXTT10=
EXTT11=
EXTT12=
EXTT13=
EXTT14=
EXTT15=
EXTT16=
EXTT17=
EXTT18=
EXTT19=
EXTT20=
EXTT21=
EXTT22=
EXTT23=
EXTT24=
PLAYORDER=
